<svg width="175" height="32" viewBox="0 0 175 32" fill="none" xmlns="http://www.w3.org/2000/svg">
<path d="M79.4589 1.70238L78.5571 0.485048V2V6.33333V6.50211L78.6594 6.63636L85.7846 15.9876L78.6839 23.953L78.5571 24.0952V24.2857V28V29.7202L79.4792 28.268L86.5985 17.0558L95.1682 28.303L96.0659 29.4812V28V24.2857V24.1207L95.9677 23.9881L88.5526 13.9782L93.2366 6.60135L93.3145 6.47866V6.33333V2L92.3543 1.80452L87.6823 12.8033L79.4589 1.70238ZM86.8299 15.7096L86.4624 15.2273L79.5571 6.16455V3.51495L87.2287 13.8711L87.399 14.1009L87.5447 14.2976L87.9782 14.8828L95.0659 24.4507V26.5188L87.1699 16.1558L86.9588 15.8788L86.8299 15.7096ZM103.32 28V28.5H103.82H119.936H120.436V28V24.2857V23.7857H119.936H109.823V17.9762H115.219H115.719V17.4762V16.1818V13.4524V12.9524H115.219H109.823V6.83333H119.936H120.436V6.33333V2V1.5H119.936H103.82H103.32V2V28ZM127.011 1.5H126.511V2V28V28.5H127.011H132.121H132.621V28V17.6929C133.567 19.8864 134.538 21.6094 135.696 23.103C137.252 25.1098 139.125 26.6757 141.666 28.4128L142.017 28.6527L142.31 28.3448L144.668 25.8686L145.131 25.3826L144.533 25.0782C142.441 24.0137 140.867 22.8447 139.359 21.0623C137.945 19.3905 136.579 17.1673 134.907 13.9524H144.306H144.806V13.4524V2V1.5H144.306H127.011ZM149.323 27.8824L149.174 28.5H149.809H154.526H154.898L155.005 28.1431L158.043 17.9762H163.636L168.22 28.2045L168.352 28.5H168.676H173H173.734L173.465 27.8171L163.246 1.81709L163.121 1.5H162.78H156.098H155.705L155.612 1.88245L149.323 27.8824ZM74.36 6.83333H74.86V6.33333V2V1.5H74.36H59.8771H59.3771V2V6.33333V6.83333H59.8771H63.6829V23.7857H59.8771H59.3771V24.2857V28V28.5H59.8771H74.36H74.86V28V24.2857V23.7857H74.36H70.1629V6.83333H74.36ZM52.1571 2V1.5H51.6571H36H35.5V2V28V28.5H36H41.48H41.98V28V13.9524H51.6571H52.1571V13.4524V2ZM132.621 6.83333H139.089V9.23809H132.621V6.83333ZM161.994 12.9524H158.41L160.064 8.82675L161.994 12.9524ZM41.98 6.83333H46.0686V9.23809H41.98V6.83333Z" fill="url(#paint0_linear_4_91)" stroke="black"/>
<g filter="url(#filter0_d_4_91)">
<path d="M30.5064 3.17048C30.5893 3.17048 30.6566 3.09815 30.6566 3.00894C30.6566 2.91974 30.5893 2.84741 30.5064 2.84741C30.4235 2.84741 30.3563 2.91974 30.3563 3.00894C30.3563 3.09815 30.4235 3.17048 30.5064 3.17048Z" fill="url(#paint1_linear_4_91)"/>
</g>
<g filter="url(#filter1_d_4_91)">
<path d="M5.74027 7.23625C5.95542 7.23625 6.12982 7.04863 6.12982 6.81719C6.12982 6.58575 5.95542 6.39813 5.74027 6.39813C5.52513 6.39813 5.35072 6.58575 5.35072 6.81719C5.35072 7.04863 5.52513 7.23625 5.74027 7.23625Z" fill="url(#paint2_linear_4_91)"/>
</g>
<g filter="url(#filter2_d_4_91)">
<path d="M1.72798 19.5101C1.94312 19.5101 2.11753 19.3225 2.11753 19.091C2.11753 18.8596 1.94312 18.672 1.72798 18.672C1.51283 18.672 1.33842 18.8596 1.33842 19.091C1.33842 19.3225 1.51283 19.5101 1.72798 19.5101Z" fill="url(#paint3_linear_4_91)"/>
</g>
<g filter="url(#filter3_d_4_91)">
<path d="M24.7923 22.8795C25.0074 22.8795 25.1818 22.6918 25.1818 22.4604C25.1818 22.229 25.0074 22.0413 24.7923 22.0413C24.5771 22.0413 24.4027 22.229 24.4027 22.4604C24.4027 22.6918 24.5771 22.8795 24.7923 22.8795Z" fill="url(#paint4_linear_4_91)"/>
</g>
<g filter="url(#filter4_d_4_91)">
<path d="M6.54929 15.7839C6.63222 15.7839 6.69944 15.7116 6.69944 15.6224C6.69944 15.5332 6.63222 15.4608 6.54929 15.4608C6.46636 15.4608 6.39912 15.5332 6.39912 15.6224C6.39912 15.7116 6.46636 15.7839 6.54929 15.7839Z" fill="url(#paint5_linear_4_91)"/>
</g>
<g filter="url(#filter5_d_4_91)">
<path d="M12.3025 2.74431C12.4327 2.74431 12.5384 2.63066 12.5384 2.49047C12.5384 2.35028 12.4327 2.23663 12.3025 2.23663C12.1721 2.23663 12.0664 2.35028 12.0664 2.49047C12.0664 2.63066 12.1721 2.74431 12.3025 2.74431Z" fill="url(#paint6_linear_4_91)"/>
</g>
<g filter="url(#filter6_d_4_91)">
<path d="M3.38326 14.0518C3.3065 14.0643 3.23508 14.0139 3.21237 13.9297C2.9995 13.1813 2.88755 13.0905 2.19139 13.1179C2.11105 13.1204 2.04032 13.0594 2.02875 12.9768C2.01703 12.8931 2.06708 12.8147 2.14422 12.7893C2.81007 12.577 2.88177 12.474 2.89827 11.6896C2.90024 11.6026 2.95248 11.532 3.02818 11.5197C3.10601 11.507 3.17636 11.5578 3.2012 11.6416C3.41177 12.3891 3.52372 12.4799 4.21882 12.4526C4.30145 12.4509 4.37079 12.5101 4.38269 12.5948C4.39426 12.6773 4.34633 12.7554 4.26707 12.7812C3.60046 12.9959 3.52967 13.0977 3.5153 13.8816C3.51137 13.9702 3.45789 14.0398 3.38326 14.0518Z" fill="url(#paint7_linear_4_91)"/>
</g>
<path d="M15.7119 7.16015C15.5097 7.24318 15.375 7.45317 15.375 7.68755C15.375 7.92192 15.5097 8.13182 15.7119 8.21484C17.3246 8.87254 18.5972 10.2558 19.2024 12.0088C19.2787 12.2284 19.4719 12.3751 19.6875 12.3751C19.9031 12.3751 20.0963 12.2284 20.1726 12.0088C20.7778 10.2558 22.0504 8.87254 23.6631 8.21484C23.8653 8.13182 24 7.92192 24 7.68755C24 7.45317 23.8653 7.24318 23.6631 7.16015C22.0504 6.50245 20.7778 5.11918 20.1726 3.36621C20.0963 3.14648 19.9031 3 19.6875 3C19.4719 3 19.2787 3.14648 19.2024 3.36621C18.5972 5.11918 17.3246 6.50245 15.7119 7.16015ZM10.2135 6.57911C10.0967 6.30078 9.84061 6.12504 9.56212 6.12504C9.28365 6.12504 9.02758 6.30078 8.91076 6.57911C7.38002 10.1715 4.72386 13.0576 1.41778 14.7188C1.16172 14.8456 1 15.124 1 15.4316C1 15.7393 1.16172 16.0126 1.41778 16.1396C4.7227 17.7988 7.38108 20.6863 8.90626 24.2793C9.02308 24.5577 9.27914 24.7334 9.55762 24.7334C9.83611 24.7334 10.0922 24.5577 10.209 24.2793C11.7371 20.6831 14.3934 17.7958 17.7019 16.1347C17.958 16.0079 18.1198 15.7295 18.1198 15.4268C18.1198 15.124 17.958 14.8456 17.7019 14.7188C14.3964 13.061 11.7399 10.1714 10.2135 6.57911ZM19.2024 18.9912C18.5972 20.7442 17.3246 22.1274 15.7119 22.7851C15.5097 22.8682 15.375 23.0782 15.375 23.3126C15.375 23.547 15.5097 23.7568 15.7119 23.8398C17.3246 24.4976 18.5972 25.8808 19.2024 27.6338C19.2787 27.8535 19.4719 28 19.6875 28C19.9031 28 20.0963 27.8535 20.1726 27.6338C20.7778 25.8808 22.0504 24.4976 23.6631 23.8398C23.8653 23.7568 24 23.547 24 23.3126C24 23.0782 23.8653 22.8682 23.6631 22.7851C22.0504 22.1274 20.7778 20.7442 20.1726 18.9912C20.0963 18.7715 19.9031 18.6251 19.6875 18.6251C19.4719 18.6251 19.2787 18.7715 19.2024 18.9912Z" fill="url(#paint8_linear_4_91)"/>
<path d="M12.7627 17.0807C5.87131 19.8078 0.614913 23.1018 1.02215 24.438C1.42939 25.7741 7.34605 24.6465 14.2374 21.9193C21.1287 19.1921 26.3851 15.8982 25.9778 14.5621C25.5706 13.2259 19.654 14.3535 12.7627 17.0807Z" stroke="url(#paint9_linear_4_91)" stroke-width="0.549291"/>
<g style="mix-blend-mode:screen" filter="url(#filter7_f_4_91)">
<path d="M12.7317 17.207C5.85848 19.7748 0.615927 22.8764 1.02209 24.1344C1.42826 25.3925 7.32934 24.3308 14.2025 21.7629C21.0757 19.1951 26.3183 16.0936 25.9121 14.8354C25.5059 13.5773 19.6049 14.6391 12.7317 17.207Z" stroke="url(#paint10_linear_4_91)" stroke-width="0.549291"/>
</g>
<g filter="url(#filter8_d_4_91)">
<path d="M23.1893 8.54983C23.0834 8.53353 23.0077 8.4363 23.0088 8.31545C23.0039 7.23632 22.8895 7.06861 21.9601 6.8074C21.8531 6.77644 21.7822 6.6654 21.7973 6.55155C21.8128 6.43607 21.9079 6.35392 22.0191 6.3533C22.9767 6.35722 23.1095 6.25174 23.4207 5.22305C23.4555 5.10896 23.5505 5.03805 23.655 5.05415C23.7625 5.07071 23.8366 5.16771 23.8385 5.28907C23.8408 6.3661 23.955 6.53391 24.883 6.79481C24.9928 6.82784 25.0625 6.93548 25.047 7.05252C25.0318 7.16635 24.9396 7.24903 24.8255 7.24922C23.8659 7.24819 23.7348 7.35223 23.4266 8.3814C23.3887 8.49668 23.2924 8.56572 23.1893 8.54983Z" fill="url(#paint11_linear_4_91)"/>
</g>
<defs>
<filter id="filter0_d_4_91" x="30.0148" y="2.50593" width="0.983257" height="1.00603" filterUnits="userSpaceOnUse" color-interpolation-filters="sRGB">
<feFlood flood-opacity="0" result="BackgroundImageFix"/>
<feColorMatrix in="SourceAlpha" type="matrix" values="0 0 0 0 0 0 0 0 0 0 0 0 0 0 0 0 0 0 127 0" result="hardAlpha"/>
<feOffset/>
<feGaussianBlur stdDeviation="0.170743"/>
<feComposite in2="hardAlpha" operator="out"/>
<feColorMatrix type="matrix" values="0 0 0 0 0.592157 0 0 0 0 0.392157 0 0 0 0 1 0 0 0 1 0"/>
<feBlend mode="normal" in2="BackgroundImageFix" result="effect1_dropShadow_4_91"/>
<feBlend mode="normal" in="SourceGraphic" in2="effect1_dropShadow_4_91" result="shape"/>
</filter>
<filter id="filter1_d_4_91" x="4.46483" y="5.51223" width="2.55089" height="2.60993" filterUnits="userSpaceOnUse" color-interpolation-filters="sRGB">
<feFlood flood-opacity="0" result="BackgroundImageFix"/>
<feColorMatrix in="SourceAlpha" type="matrix" values="0 0 0 0 0 0 0 0 0 0 0 0 0 0 0 0 0 0 127 0" result="hardAlpha"/>
<feOffset/>
<feGaussianBlur stdDeviation="0.442949"/>
<feComposite in2="hardAlpha" operator="out"/>
<feColorMatrix type="matrix" values="0 0 0 0 0.592157 0 0 0 0 0.392157 0 0 0 0 1 0 0 0 1 0"/>
<feBlend mode="normal" in2="BackgroundImageFix" result="effect1_dropShadow_4_91"/>
<feBlend mode="normal" in="SourceGraphic" in2="effect1_dropShadow_4_91" result="shape"/>
</filter>
<filter id="filter2_d_4_91" x="0.452527" y="17.7861" width="2.55089" height="2.60987" filterUnits="userSpaceOnUse" color-interpolation-filters="sRGB">
<feFlood flood-opacity="0" result="BackgroundImageFix"/>
<feColorMatrix in="SourceAlpha" type="matrix" values="0 0 0 0 0 0 0 0 0 0 0 0 0 0 0 0 0 0 127 0" result="hardAlpha"/>
<feOffset/>
<feGaussianBlur stdDeviation="0.442949"/>
<feComposite in2="hardAlpha" operator="out"/>
<feColorMatrix type="matrix" values="0 0 0 0 0.592157 0 0 0 0 0.392157 0 0 0 0 1 0 0 0 1 0"/>
<feBlend mode="normal" in2="BackgroundImageFix" result="effect1_dropShadow_4_91"/>
<feBlend mode="normal" in="SourceGraphic" in2="effect1_dropShadow_4_91" result="shape"/>
</filter>
<filter id="filter3_d_4_91" x="23.5168" y="21.1554" width="2.55092" height="2.60993" filterUnits="userSpaceOnUse" color-interpolation-filters="sRGB">
<feFlood flood-opacity="0" result="BackgroundImageFix"/>
<feColorMatrix in="SourceAlpha" type="matrix" values="0 0 0 0 0 0 0 0 0 0 0 0 0 0 0 0 0 0 127 0" result="hardAlpha"/>
<feOffset/>
<feGaussianBlur stdDeviation="0.442949"/>
<feComposite in2="hardAlpha" operator="out"/>
<feColorMatrix type="matrix" values="0 0 0 0 0.592157 0 0 0 0 0.392157 0 0 0 0 1 0 0 0 1 0"/>
<feBlend mode="normal" in2="BackgroundImageFix" result="effect1_dropShadow_4_91"/>
<feBlend mode="normal" in="SourceGraphic" in2="effect1_dropShadow_4_91" result="shape"/>
</filter>
<filter id="filter4_d_4_91" x="6.05764" y="15.1193" width="0.983288" height="1.00609" filterUnits="userSpaceOnUse" color-interpolation-filters="sRGB">
<feFlood flood-opacity="0" result="BackgroundImageFix"/>
<feColorMatrix in="SourceAlpha" type="matrix" values="0 0 0 0 0 0 0 0 0 0 0 0 0 0 0 0 0 0 127 0" result="hardAlpha"/>
<feOffset/>
<feGaussianBlur stdDeviation="0.170743"/>
<feComposite in2="hardAlpha" operator="out"/>
<feColorMatrix type="matrix" values="0 0 0 0 0.592157 0 0 0 0 0.392157 0 0 0 0 1 0 0 0 1 0"/>
<feBlend mode="normal" in2="BackgroundImageFix" result="effect1_dropShadow_4_91"/>
<feBlend mode="normal" in="SourceGraphic" in2="effect1_dropShadow_4_91" result="shape"/>
</filter>
<filter id="filter5_d_4_91" x="11.5298" y="1.70001" width="1.54517" height="1.58093" filterUnits="userSpaceOnUse" color-interpolation-filters="sRGB">
<feFlood flood-opacity="0" result="BackgroundImageFix"/>
<feColorMatrix in="SourceAlpha" type="matrix" values="0 0 0 0 0 0 0 0 0 0 0 0 0 0 0 0 0 0 127 0" result="hardAlpha"/>
<feOffset/>
<feGaussianBlur stdDeviation="0.268311"/>
<feComposite in2="hardAlpha" operator="out"/>
<feColorMatrix type="matrix" values="0 0 0 0 0.592157 0 0 0 0 0.392157 0 0 0 0 1 0 0 0 1 0"/>
<feBlend mode="normal" in2="BackgroundImageFix" result="effect1_dropShadow_4_91"/>
<feBlend mode="normal" in="SourceGraphic" in2="effect1_dropShadow_4_91" result="shape"/>
</filter>
<filter id="filter6_d_4_91" x="0.94543" y="10.7177" width="4.52059" height="4.6992" filterUnits="userSpaceOnUse" color-interpolation-filters="sRGB">
<feFlood flood-opacity="0" result="BackgroundImageFix"/>
<feColorMatrix in="SourceAlpha" type="matrix" values="0 0 0 0 0 0 0 0 0 0 0 0 0 0 0 0 0 0 127 0" result="hardAlpha"/>
<feOffset dy="0.281606"/>
<feGaussianBlur stdDeviation="0.540812"/>
<feComposite in2="hardAlpha" operator="out"/>
<feColorMatrix type="matrix" values="0 0 0 0 0.220722 0 0 0 0 0.210451 0 0 0 0 0.241667 0 0 0 0.6 0"/>
<feBlend mode="normal" in2="BackgroundImageFix" result="effect1_dropShadow_4_91"/>
<feBlend mode="normal" in="SourceGraphic" in2="effect1_dropShadow_4_91" result="shape"/>
</filter>
<filter id="filter7_f_4_91" x="0.470814" y="13.7772" width="25.9925" height="11.4155" filterUnits="userSpaceOnUse" color-interpolation-filters="sRGB">
<feFlood flood-opacity="0" result="BackgroundImageFix"/>
<feBlend mode="normal" in="SourceGraphic" in2="BackgroundImageFix" result="shape"/>
<feGaussianBlur stdDeviation="0.127195" result="effect1_foregroundBlur_4_91"/>
</filter>
<filter id="filter8_d_4_91" x="19.6649" y="3.4761" width="7.51477" height="7.7611" filterUnits="userSpaceOnUse" color-interpolation-filters="sRGB">
<feFlood flood-opacity="0" result="BackgroundImageFix"/>
<feColorMatrix in="SourceAlpha" type="matrix" values="0 0 0 0 0 0 0 0 0 0 0 0 0 0 0 0 0 0 127 0" result="hardAlpha"/>
<feOffset dy="0.554677"/>
<feGaussianBlur stdDeviation="1.06523"/>
<feComposite in2="hardAlpha" operator="out"/>
<feColorMatrix type="matrix" values="0 0 0 0 0.296824 0 0 0 0 0.244184 0 0 0 0 0.404167 0 0 0 0.6 0"/>
<feBlend mode="normal" in2="BackgroundImageFix" result="effect1_dropShadow_4_91"/>
<feBlend mode="normal" in="SourceGraphic" in2="effect1_dropShadow_4_91" result="shape"/>
</filter>
<linearGradient id="paint0_linear_4_91" x1="36" y1="15" x2="173" y2="15" gradientUnits="userSpaceOnUse">
<stop stop-color="#4318FF"/>
<stop offset="1" stop-color="#9764FF"/>
</linearGradient>
<linearGradient id="paint1_linear_4_91" x1="30.3651" y1="2.99224" x2="30.6637" y2="2.99806" gradientUnits="userSpaceOnUse">
<stop stop-color="#26A4FF"/>
<stop offset="1" stop-color="#0D9AFF"/>
</linearGradient>
<linearGradient id="paint2_linear_4_91" x1="5.37381" y1="6.77384" x2="6.14839" y2="6.78901" gradientUnits="userSpaceOnUse">
<stop stop-color="#26A4FF"/>
<stop offset="1" stop-color="#0D9AFF"/>
</linearGradient>
<linearGradient id="paint3_linear_4_91" x1="1.36151" y1="19.0477" x2="2.1361" y2="19.0627" gradientUnits="userSpaceOnUse">
<stop stop-color="#26A4FF"/>
<stop offset="1" stop-color="#0D9AFF"/>
</linearGradient>
<linearGradient id="paint4_linear_4_91" x1="24.4259" y1="22.417" x2="25.2004" y2="22.4322" gradientUnits="userSpaceOnUse">
<stop stop-color="#26A4FF"/>
<stop offset="1" stop-color="#0D9AFF"/>
</linearGradient>
<linearGradient id="paint5_linear_4_91" x1="6.40803" y1="15.6058" x2="6.70661" y2="15.6116" gradientUnits="userSpaceOnUse">
<stop stop-color="#26A4FF"/>
<stop offset="1" stop-color="#0D9AFF"/>
</linearGradient>
<linearGradient id="paint6_linear_4_91" x1="12.0805" y1="2.46421" x2="12.5496" y2="2.47338" gradientUnits="userSpaceOnUse">
<stop stop-color="#26A4FF"/>
<stop offset="1" stop-color="#0D9AFF"/>
</linearGradient>
<linearGradient id="paint7_linear_4_91" x1="4.29458" y1="12.4751" x2="1.95262" y2="12.8504" gradientUnits="userSpaceOnUse">
<stop stop-color="#26A4FF"/>
<stop offset="1" stop-color="#0D9AFF"/>
</linearGradient>
<linearGradient id="paint8_linear_4_91" x1="1" y1="3" x2="25.9133" y2="25.9203" gradientUnits="userSpaceOnUse">
<stop stop-color="#868CFF"/>
<stop offset="1" stop-color="#4318FF"/>
</linearGradient>
<linearGradient id="paint9_linear_4_91" x1="1.42236" y1="26.2679" x2="0.215637" y2="23.1609" gradientUnits="userSpaceOnUse">
<stop stop-color="#3F5FFF"/>
<stop offset="1" stop-color="#3F5FFF" stop-opacity="0"/>
</linearGradient>
<linearGradient id="paint10_linear_4_91" x1="1.42125" y1="25.8575" x2="0.333064" y2="22.8897" gradientUnits="userSpaceOnUse">
<stop stop-color="#1DA0FF"/>
<stop offset="1" stop-color="#199FFF" stop-opacity="0.13"/>
</linearGradient>
<linearGradient id="paint11_linear_4_91" x1="24.9748" y1="6.85684" x2="21.7279" y2="6.48876" gradientUnits="userSpaceOnUse">
<stop stop-color="#26A4FF"/>
<stop offset="1" stop-color="#0D9AFF"/>
</linearGradient>
</defs>
</svg>
